<svg width="24" height="24" viewBox="0 0 24 24" fill="none" xmlns="http://www.w3.org/2000/svg">
<path d="M15.9062 7.26953C16.1383 7.03756 16.5142 7.03749 16.7461 7.26953C16.9778 7.50146 16.978 7.87752 16.7461 8.10938L8.13477 16.7207C8.07962 16.776 8.01358 16.8197 7.94141 16.8496C7.8693 16.8794 7.79192 16.8947 7.71387 16.8945C7.56234 16.8944 7.40965 16.8373 7.29395 16.7207V16.7197C7.06282 16.4877 7.06327 16.1125 7.29492 15.8809L15.9062 7.26953Z" fill="#7C7C7C" stroke="#7C7C7C" stroke-width="0.2"/>
<path d="M7.29492 7.26953C7.52684 7.03761 7.90285 7.03761 8.13477 7.26953L16.7461 15.8809C16.978 16.1128 16.978 16.4898 16.7461 16.7217L16.7451 16.7207C16.6901 16.7758 16.6256 16.8207 16.5537 16.8506C16.5178 16.8655 16.4803 16.8762 16.4424 16.8838L16.3262 16.8955C16.1746 16.8955 16.022 16.8373 15.9062 16.7207V16.7217L7.29492 8.10938C7.06305 7.87735 7.06299 7.50146 7.29492 7.26953Z" fill="#7C7C7C" stroke="#7C7C7C" stroke-width="0.2"/>
<path d="M19.5 21.75H4.5C3.90326 21.75 3.33097 21.5129 2.90901 21.091C2.48705 20.669 2.25 20.0967 2.25 19.5V4.5C2.25 3.90326 2.48705 3.33097 2.90901 2.90901C3.33097 2.48705 3.90326 2.25 4.5 2.25H19.5C20.0967 2.25 20.669 2.48705 21.091 2.90901C21.5129 3.33097 21.75 3.90326 21.75 4.5V19.5C21.75 20.0967 21.5129 20.669 21.091 21.091C20.669 21.5129 20.0967 21.75 19.5 21.75ZM4.5 3.75C4.30109 3.75 4.11032 3.82902 3.96967 3.96967C3.82902 4.11032 3.75 4.30109 3.75 4.5V19.5C3.75 19.6989 3.82902 19.8897 3.96967 20.0303C4.11032 20.171 4.30109 20.25 4.5 20.25H19.5C19.6989 20.25 19.8897 20.171 20.0303 20.0303C20.171 19.8897 20.25 19.6989 20.25 19.5V4.5C20.25 4.30109 20.171 4.11032 20.0303 3.96967C19.8897 3.82902 19.6989 3.75 19.5 3.75H4.5Z" fill="#7C7C7C"/>
</svg>
