<svg width="20" height="20" viewBox="0 0 20 20" fill="none" xmlns="http://www.w3.org/2000/svg">
<path d="M16.667 7.16572L9.68366 14.1491C9.44199 14.3907 9.12533 14.5407 8.78366 14.5741L6.34199 14.7991H6.25033C5.97533 14.7991 5.70866 14.6907 5.51699 14.4907C5.30033 14.2741 5.19199 13.9657 5.21699 13.6574L5.44199 11.2157C5.47533 10.8741 5.62533 10.5574 5.86699 10.3157L12.8337 3.33239L16.667 7.16572ZM18.2837 2.30739L17.692 1.71572C17.2613 1.28734 16.6786 1.04688 16.0712 1.04688C15.4637 1.04688 14.881 1.28734 14.4503 1.71572L13.717 2.44905L17.5503 6.28239L18.2837 5.54905C18.4971 5.3374 18.6665 5.08557 18.7822 4.80809C18.8978 4.53062 18.9573 4.23299 18.9573 3.93239C18.9573 3.63178 18.8978 3.33416 18.7822 3.05668C18.6665 2.7792 18.4971 2.52737 18.2837 2.31572V2.30739ZM17.292 15.8407V10.9991C17.292 10.6574 17.0087 10.3741 16.667 10.3741C16.3253 10.3741 16.042 10.6574 16.042 10.9991V15.8407C16.042 16.8741 15.2003 17.7157 14.167 17.7157H4.16699C3.13366 17.7157 2.29199 16.8741 2.29199 15.8407V5.83239C2.29199 4.79905 3.13366 3.95739 4.16699 3.95739H9.00866C9.35033 3.95739 9.63366 3.67405 9.63366 3.33239C9.63366 2.99072 9.35033 2.70739 9.00866 2.70739H4.16699C2.44199 2.70739 1.04199 4.10739 1.04199 5.83239V15.8324C1.04199 17.5574 2.44199 18.9574 4.16699 18.9574H14.167C15.892 18.9574 17.292 17.5574 17.292 15.8324V15.8407Z" fill="#303030"/>
</svg>
