<svg width="20" height="20" viewBox="0 0 20 20" fill="none" xmlns="http://www.w3.org/2000/svg">
<path d="M10 5C7.24001 5 5 7.24001 5 10C5 12.76 7.24001 15 10 15C12.76 15 15 12.76 15 9.99996C15 7.23997 12.76 5 10 5Z" fill="#FF5C24"/>
<path d="M9.99998 0C4.47501 0 0 4.47501 0 9.99998C0 15.5249 4.47501 20 9.99998 20C15.5249 20 20 15.525 20 9.99998C20 4.47497 15.525 0 9.99998 0ZM9.99998 18C5.58 18 1.99997 14.42 1.99997 9.99998C1.99997 5.57995 5.58 2.00001 9.99998 2.00001C14.42 2.00001 18 5.58 18 9.99998C18 14.42 14.42 18 9.99998 18Z" fill="#FF5C24"/>
</svg>
