<svg width="110" height="59" viewBox="0 0 110 59" fill="none" xmlns="http://www.w3.org/2000/svg">
<g filter="url(#filter0_d_2442_9830)">
<rect x="16" y="12" width="78" height="27" rx="6" fill="white" shape-rendering="crispEdges"/>
<rect x="16.25" y="12.25" width="77.5" height="26.5" rx="5.75" stroke="#C7C7C7" stroke-width="0.5" shape-rendering="crispEdges"/>
<path d="M29.344 31.208C28.448 31.208 27.6693 30.9893 27.008 30.552C26.352 30.1147 25.8453 29.528 25.488 28.792C25.136 28.0507 24.96 27.2293 24.96 26.328V19.8H26.304V26.328C26.304 26.968 26.4213 27.5573 26.656 28.096C26.896 28.6347 27.24 29.064 27.688 29.384C28.1413 29.704 28.6933 29.864 29.344 29.864C30.0053 29.864 30.56 29.704 31.008 29.384C31.456 29.0587 31.7947 28.6293 32.024 28.096C32.2587 27.5573 32.376 26.968 32.376 26.328V19.8H33.72V26.328C33.72 27.0053 33.6187 27.64 33.416 28.232C33.2133 28.8187 32.92 29.336 32.536 29.784C32.1573 30.232 31.6987 30.5813 31.16 30.832C30.6213 31.0827 30.016 31.208 29.344 31.208ZM42.5789 26.024V31H41.2349V26.32C41.2349 25.9147 41.1362 25.5467 40.9389 25.216C40.7415 24.8853 40.4775 24.624 40.1469 24.432C39.8162 24.2347 39.4482 24.136 39.0429 24.136C38.6429 24.136 38.2749 24.2347 37.9389 24.432C37.6082 24.624 37.3442 24.8853 37.1469 25.216C36.9495 25.5467 36.8509 25.9147 36.8509 26.32V31H35.5069V23H36.8509V24C37.1335 23.6267 37.4909 23.3307 37.9229 23.112C38.3549 22.888 38.8242 22.776 39.3309 22.776C39.9282 22.776 40.4722 22.9227 40.9629 23.216C41.4589 23.504 41.8509 23.8933 42.1389 24.384C42.4322 24.8747 42.5789 25.4213 42.5789 26.024ZM45.9948 21.024V23H48.3388V24.344H45.9948V31H44.6508V24.344H43.6188V23H44.6508V21.024C44.6508 20.6133 44.7494 20.2427 44.9468 19.912C45.1494 19.576 45.4188 19.3093 45.7548 19.112C46.0961 18.9093 46.4694 18.808 46.8748 18.808C47.1734 18.808 47.4641 18.8693 47.7468 18.992C48.0294 19.1093 48.2801 19.2853 48.4988 19.52L47.5388 20.472C47.4641 20.3707 47.3654 20.2933 47.2428 20.24C47.1254 20.1813 47.0028 20.152 46.8748 20.152C46.6348 20.152 46.4268 20.2373 46.2508 20.408C46.0801 20.5787 45.9948 20.784 45.9948 21.024ZM52.9644 31.208C52.2284 31.208 51.5564 31.0187 50.9484 30.64C50.3457 30.2613 49.863 29.7547 49.5004 29.12C49.143 28.48 48.9644 27.7733 48.9644 27C48.9644 26.4133 49.0684 25.8667 49.2764 25.36C49.4844 24.848 49.7697 24.4 50.1324 24.016C50.5004 23.6267 50.927 23.3227 51.4124 23.104C51.8977 22.8853 52.415 22.776 52.9644 22.776C53.7004 22.776 54.3697 22.9653 54.9724 23.344C55.5804 23.7227 56.063 24.232 56.4204 24.872C56.783 25.512 56.9644 26.2213 56.9644 27C56.9644 27.5813 56.8604 28.1253 56.6524 28.632C56.4444 29.1387 56.1564 29.5867 55.7884 29.976C55.4257 30.36 55.0017 30.6613 54.5164 30.88C54.0364 31.0987 53.519 31.208 52.9644 31.208ZM52.9644 29.864C53.4657 29.864 53.9164 29.7333 54.3164 29.472C54.7217 29.2053 55.039 28.856 55.2684 28.424C55.503 27.9867 55.6204 27.512 55.6204 27C55.6204 26.4773 55.5004 25.9973 55.2604 25.56C55.0257 25.1227 54.7084 24.7733 54.3084 24.512C53.9084 24.2507 53.4604 24.12 52.9644 24.12C52.463 24.12 52.0124 24.2533 51.6124 24.52C51.2124 24.7813 50.895 25.1307 50.6604 25.568C50.4257 26.0053 50.3084 26.4827 50.3084 27C50.3084 27.5333 50.4284 28.0187 50.6684 28.456C50.9084 28.888 51.231 29.232 51.6364 29.488C52.0417 29.7387 52.4844 29.864 52.9644 29.864ZM58.21 31V19H59.554V31H58.21ZM61.4756 31V19H62.8196V31H61.4756ZM68.1831 31.208C67.4471 31.208 66.7751 31.0187 66.1671 30.64C65.5645 30.2613 65.0818 29.7547 64.7191 29.12C64.3618 28.48 64.1831 27.7733 64.1831 27C64.1831 26.4133 64.2871 25.8667 64.4951 25.36C64.7031 24.848 64.9885 24.4 65.3511 24.016C65.7191 23.6267 66.1458 23.3227 66.6311 23.104C67.1165 22.8853 67.6338 22.776 68.1831 22.776C68.9191 22.776 69.5885 22.9653 70.1911 23.344C70.7991 23.7227 71.2818 24.232 71.6391 24.872C72.0018 25.512 72.1831 26.2213 72.1831 27C72.1831 27.5813 72.0791 28.1253 71.8711 28.632C71.6631 29.1387 71.3751 29.5867 71.0071 29.976C70.6445 30.36 70.2205 30.6613 69.7351 30.88C69.2551 31.0987 68.7378 31.208 68.1831 31.208ZM68.1831 29.864C68.6845 29.864 69.1351 29.7333 69.5351 29.472C69.9405 29.2053 70.2578 28.856 70.4871 28.424C70.7218 27.9867 70.8391 27.512 70.8391 27C70.8391 26.4773 70.7191 25.9973 70.4791 25.56C70.2445 25.1227 69.9271 24.7733 69.5271 24.512C69.1271 24.2507 68.6791 24.12 68.1831 24.12C67.6818 24.12 67.2311 24.2533 66.8311 24.52C66.4311 24.7813 66.1138 25.1307 65.8791 25.568C65.6445 26.0053 65.5271 26.4827 65.5271 27C65.5271 27.5333 65.6471 28.0187 65.8871 28.456C66.1271 28.888 66.4498 29.232 66.8551 29.488C67.2605 29.7387 67.7031 29.864 68.1831 29.864ZM76.7231 31H75.3631L72.6831 23H73.9951L76.0591 29.104L78.0991 23H79.4831L81.5311 29.104L83.5711 23H84.8991L82.2191 31H80.8511L78.7791 24.84L76.7231 31Z" fill="#7C7C7C"/>
</g>
<defs>
<filter id="filter0_d_2442_9830" x="0" y="0" width="110" height="59" filterUnits="userSpaceOnUse" color-interpolation-filters="sRGB">
<feFlood flood-opacity="0" result="BackgroundImageFix"/>
<feColorMatrix in="SourceAlpha" type="matrix" values="0 0 0 0 0 0 0 0 0 0 0 0 0 0 0 0 0 0 127 0" result="hardAlpha"/>
<feOffset dy="4"/>
<feGaussianBlur stdDeviation="8"/>
<feComposite in2="hardAlpha" operator="out"/>
<feColorMatrix type="matrix" values="0 0 0 0 0 0 0 0 0 0 0 0 0 0 0 0 0 0 0.04 0"/>
<feBlend mode="normal" in2="BackgroundImageFix" result="effect1_dropShadow_2442_9830"/>
<feBlend mode="normal" in="SourceGraphic" in2="effect1_dropShadow_2442_9830" result="shape"/>
</filter>
</defs>
</svg>
